<?xml version="1.0" standalone="no"?>
<!DOCTYPE svg PUBLIC "-//W3C//DTD SVG 20010904//EN"
 "http://www.w3.org/TR/2001/REC-SVG-20010904/DTD/svg10.dtd">
<svg version="1.0" xmlns="http://www.w3.org/2000/svg"
 width="19.000000pt" height="39.000000pt" viewBox="0 0 19.000000 39.000000"
 preserveAspectRatio="xMidYMid meet">
<metadata>
Created by potrace 1.10, written by Peter Selinger 2001-2011
</metadata>
<g transform="translate(0.000000,39.000000) scale(0.100000,-0.100000)"
fill="#2f318f" stroke="none">
<path d="M72 316 c-53 -54 -73 -80 -70 -95 2 -18 18 -6 98 74 82 82 91 95 70
95 -18 0 -47 -22 -98 -74z"/>
<path d="M145 290 c-3 -5 -3 -10 1 -10 5 0 -9 -18 -30 -39 -22 -22 -45 -37
-52 -34 -8 3 -14 -1 -14 -8 0 -7 2 -10 5 -7 3 3 28 -18 56 -46 l49 -51 -1 103
c-1 56 -3 102 -5 102 -1 0 -6 -4 -9 -10z"/>
<path d="M10 185 c-6 -8 -10 -21 -8 -29 6 -27 139 -156 161 -156 17 0 3 19
-66 88 -68 69 -85 90 -75 100 7 7 9 12 6 12 -3 0 -11 -7 -18 -15z"/>
<path d="M95 130 c27 -27 51 -50 54 -50 3 0 -17 23 -44 50 -27 28 -51 50 -54
50 -3 0 17 -22 44 -50z"/>
</g>
</svg>
