<?xml version="1.0" standalone="no"?>
<!DOCTYPE svg PUBLIC "-//W3C//DTD SVG 20010904//EN"
 "http://www.w3.org/TR/2001/REC-SVG-20010904/DTD/svg10.dtd">
<svg version="1.0" xmlns="http://www.w3.org/2000/svg"
 width="55.000000pt" height="51.000000pt" viewBox="0 0 55.000000 51.000000"
 preserveAspectRatio="xMidYMid meet">
<metadata>
Created by potrace 1.10, written by Peter Selinger 2001-2011
</metadata>
<g transform="translate(0.000000,51.000000) scale(0.100000,-0.100000)"
fill="#080808" stroke="none">
<path d="M109 398 c-99 -101 -106 -112 -106 -148 0 -37 7 -48 103 -146 68 -69
110 -104 121 -102 17 3 18 24 21 248 l2 245 -122 -120 -123 -120 125 128 c85
87 118 127 105 126 -11 -1 -67 -50 -126 -111z m129 -253 l-3 -105 -103 104
-104 104 104 105 103 106 3 -105 c1 -57 1 -151 0 -209z m-108 -20 c63 -63 112
-115 110 -115 -3 0 -57 52 -120 115 -63 63 -112 115 -110 115 3 0 57 -52 120
-115z"/>
<path d="M167 371 c-14 -17 -28 -27 -32 -23 -5 4 -5 2 -2 -5 4 -6 -10 -26 -33
-46 -22 -18 -40 -39 -40 -45 0 -13 75 -92 87 -92 4 0 -13 20 -37 45 l-44 44
50 53 c27 30 59 61 72 71 l22 18 0 -142 0 -143 -32 30 -31 29 22 -33 c14 -19
30 -32 40 -30 14 3 16 23 19 142 2 105 -1 141 -10 148 -20 12 -24 10 -51 -21z"/>
<path d="M135 310 l-60 -60 63 -63 62 -62 0 123 c0 67 -1 122 -3 122 -1 0 -29
-27 -62 -60z m35 -62 l0 -63 -32 32 -32 33 29 30 c16 16 30 30 32 30 2 0 3
-28 3 -62z"/>
<path d="M260 255 c0 -248 1 -255 20 -255 19 0 20 7 20 255 0 248 -1 255 -20
255 -19 0 -20 -7 -20 -255z"/>
<path d="M425 390 c81 -81 121 -115 123 -105 4 19 -203 225 -226 225 -10 0 35
-52 103 -120z"/>
<path d="M368 375 c19 -16 29 -20 34 -12 10 16 -6 30 -36 33 l-25 3 27 -24z
m27 5 c3 -5 1 -10 -4 -10 -6 0 -11 5 -11 10 0 6 2 10 4 10 3 0 8 -4 11 -10z"/>
<path d="M350 205 c0 -143 -3 -171 -17 -187 -15 -17 -15 -18 4 -18 23 0 33 18
33 57 0 21 2 23 15 13 19 -16 59 8 83 50 9 15 31 36 49 45 24 13 33 25 33 43
l0 26 -28 -27 c-36 -35 -42 -34 -42 7 0 18 -7 39 -15 46 -13 11 -15 4 -15 -57
0 -60 -3 -73 -23 -91 -13 -12 -26 -22 -30 -22 -4 0 -7 56 -7 123 0 111 -2 126
-20 142 -20 18 -20 17 -20 -150z"/>
<path d="M420 356 c0 -2 7 -7 16 -10 8 -3 12 -2 9 4 -6 10 -25 14 -25 6z"/>
<path d="M432 290 c-6 -11 -12 -30 -11 -42 0 -20 2 -19 11 7 15 41 15 41 42
16 19 -18 24 -20 29 -7 4 11 1 13 -10 9 -12 -5 -15 -2 -10 10 4 11 2 14 -9 10
-7 -3 -14 0 -14 6 0 17 -14 13 -28 -9z"/>
<path d="M520 261 c0 -5 5 -13 10 -16 6 -3 10 -2 10 4 0 5 -4 13 -10 16 -5 3
-10 2 -10 -4z"/>
<path d="M500 224 c0 -8 5 -12 10 -9 6 3 10 10 10 16 0 5 -4 9 -10 9 -5 0 -10
-7 -10 -16z"/>
<path d="M422 200 c0 -14 2 -19 5 -12 2 6 2 18 0 25 -3 6 -5 1 -5 -13z"/>
<path d="M416 143 c-6 -14 -5 -15 5 -6 7 7 10 15 7 18 -3 3 -9 -2 -12 -12z"/>
</g>
</svg>
