<?xml version="1.0" standalone="no"?>
<!DOCTYPE svg PUBLIC "-//W3C//DTD SVG 20010904//EN"
 "http://www.w3.org/TR/2001/REC-SVG-20010904/DTD/svg10.dtd">
<svg version="1.0" xmlns="http://www.w3.org/2000/svg"
 width="19.000000pt" height="39.000000pt" viewBox="0 0 19.000000 39.000000"
 preserveAspectRatio="xMidYMid meet">
<metadata>
Created by potrace 1.10, written by Peter Selinger 2001-2011
</metadata>
<g transform="translate(0.000000,39.000000) scale(0.100000,-0.100000)"
fill="#efaf4e" stroke="none">
<path d="M95 300 c79 -80 90 -88 93 -67 4 32 -120 157 -157 157 -23 0 -16 -10
64 -90z"/>
<path d="M40 153 c0 -87 -4 -133 -12 -141 -9 -9 -7 -12 8 -12 28 0 154 124
154 152 0 21 0 21 -25 -2 l-25 -23 0 30 c0 17 -7 36 -15 43 -13 11 -15 5 -15
-47 0 -47 -4 -64 -20 -78 -20 -18 -20 -17 -20 82 0 77 -3 103 -15 113 -13 11
-15 -3 -15 -117z"/>
</g>
</svg>
